<svg width="468" height="538" viewBox="0 0 468 538" fill="none" xmlns="http://www.w3.org/2000/svg">
<path fill-rule="evenodd" clip-rule="evenodd" d="M174 30.3C142 47 115.7 61.1 115.8 61.7C115.8 63.2 192.7 102.1 195.4 102C196.6 102 205.6 97.8 215.4 92.8L233.2 83.7L252.6 93.7L272 103.7L303.8 89.4C351.6 67.9 356.6 65.5 355.8 64.8C354.8 63.7 337.6 54.5 291 30C268.5 18.2 246.7 6.49998 242.5 4.19998C238.3 1.79998 234.3 0 233.6 0C232.9 0 206 13.6 174 30.3ZM33.5 103.1L0.100006 120.3V195.9C0.100006 237.5 0.500006 271.5 1.10001 271.5C1.60001 271.5 18 264.4 37.6 255.7L73.1 239.9V160.2L90.4 169.6C103.8 176.9 117.1 184.1 130.5 191.4L153.3 203.7L163.4 199.1C169.8 196.2 176.1 193.3 182.4 190.4C187.3 188.1 199.3 182.7 209.1 178.4C218.9 174.1 227.9 169.7 229.2 168.7C230.9 167.4 210.1 155.9 152.3 126.2C108.7 103.8 71.6 85.6 69.9 85.7C68.2 85.8 51.8 93.6 33.5 103.1ZM361.7 107.9C339 118.2 320.4 127 320.4 127.5C320.4 128 332.8 135.4 347.9 143.9C363.1 152.4 375.4 159.8 375.4 160.4C375.4 161 362 167.5 345.6 174.8C329.2 182.2 287.8 200.9 253.5 216.4L138.8 268.3C109.9 281.3 83.9 293.1 81 294.4C22.1 321.1 5.80001 328.5 3.60001 329.8C1.40001 331.1 0.9 338.5 0.5 375.8L0 420.3L29.8 435.5L59.6 450.7L101 432C123.7 421.7 142.4 412.8 142.4 412.1C142.4 411.4 138.2 408.7 133.1 406C128 403.3 117.4 397.3 109.5 392.7C101.7 388.1 93.9 383.9 92.2 383.3C90.5 382.7 89.1 381.8 89.1 381.1C89.1 380.5 107.3 371.8 129.6 361.9C172.8 342.6 205.8 327.7 276.7 295.6C308.4 281.3 340.1 266.9 371.9 252.6C399.8 240 432.2 225.3 443.9 219.9L465.2 210.1L465.7 165.1L466.2 120.1L436 104.7C419.4 96.2 405.1 89.2 404.4 89.2C403.6 89.2 384.4 97.7 361.7 107.9ZM457.2 270.3C452.7 272.5 443.9 276.6 437.6 279.4C431.3 282.2 419.3 287.6 411 291.4L395.9 298.3L395.6 337.8C395.4 359.5 394.6 377.2 393.8 377.1C392 376.8 363.7 362.3 335.2 347C314.6 336 313.3 335.5 308.5 337.9C305.7 339.3 289 346.8 271.4 354.5C253.8 362.3 238.8 369.1 238.1 369.8C237.4 370.4 272.8 389.6 316.9 412.5L396.9 454.1L431.1 436.4C449.9 426.7 465.9 417.8 466.6 416.7C468.3 414.2 468.1 266 466.5 266.2C465.8 266.3 461.6 268.1 457.2 270.3ZM267.8 444.2C261.9 446.7 255.9 449.3 250 451.9C232.1 459.6 235.6 459.9 214.3 449.3C200.1 442.2 194 440.1 191.3 441.1C189.3 441.9 172.2 449.6 153.2 458.2C134.3 466.8 118.1 473.9 117.3 473.9C109.3 473.9 122.6 481.8 173.6 507.5L233.4 537.7L258.6 525.3C272.4 518.5 300.4 504.8 320.6 494.9C340.9 485 357.2 476.7 356.9 476.3C356.6 476 339.6 467.3 319.1 456.9L281.9 438.1L267.8 444.2Z" fill="black"/>
</svg>
